<svg width="21" height="21" viewBox="0 0 21 21" fill="none" xmlns="http://www.w3.org/2000/svg">
<path d="M10.5005 7.67009L3.12321 0.2928C2.7317 -0.096266 2.09952 -0.0962659 1.70801 0.2928L0.291799 1.70801C-0.0972673 2.09952 -0.0972673 2.7317 0.291799 3.12321L7.67009 10.5005L0.2928 17.8778C-0.0962658 18.2693 -0.0962657 18.9015 0.2928 19.293L1.70801 20.7082C2.09952 21.0973 2.7317 21.0973 3.12321 20.7082L10.5005 13.3309L17.8778 20.7082C18.2693 21.0973 18.9015 21.0973 19.293 20.7082L20.7082 19.292C21.0973 18.9005 21.0973 18.2683 20.7082 17.8768L13.3309 10.4995L20.7082 3.12221C21.0973 2.7307 21.0973 2.09852 20.7082 1.707L19.293 0.291799C18.9015 -0.097267 18.2693 -0.0972669 17.8778 0.291799L10.5005 7.67009Z" fill="#FB565A"/>
</svg>
